<?xml version="1.0" encoding="iso-8859-1"?>
<!-- Generator: Adobe Illustrator 19.0.0, SVG Export Plug-In . SVG Version: 6.00 Build 0)  -->
<svg version="1.1" id="Capa_1" xmlns="http://www.w3.org/2000/svg" xmlns:xlink="http://www.w3.org/1999/xlink" x="0px" y="0px"
	 viewBox="0 0 512.001 512.001" style="enable-background:new 0 0 512.001 512.001;" xml:space="preserve">
<g>
	<g>
		<path d="M289.723,470.746c-1.561-1.562-4.091-1.562-5.652,0c-1.562,1.56-1.562,4.093,0,5.652
			c6.239,6.233,6.243,16.375,0.016,22.609c-6.23,6.237-16.38,6.245-22.625,0.008c-1.563-1.562-4.092-1.562-5.653,0
			c-1.562,1.56-1.562,4.093,0,5.652c4.676,4.672,10.816,7.011,16.961,7.011c6.143,0,12.292-2.343,16.969-7.018
			C299.083,495.303,299.076,480.091,289.723,470.746z"/>
	</g>
</g>
<g>
	<g>
		<path d="M329.287,431.179l-31.088-31.104c-1.561-1.561-4.091-1.561-5.652,0c-1.562,1.562-1.562,4.091,0,5.652l31.088,31.104
			c6.238,6.237,6.242,16.384,0.008,22.617c-6.039,6.039-16.574,6.023-22.609-0.016c-1.561-1.562-4.091-1.562-5.652,0
			c-1.562,1.557-1.562,4.09,0,5.652c4.532,4.536,10.559,7.034,16.973,7.034c6.403,0,12.421-2.494,16.94-7.017
			C338.644,455.752,338.644,440.532,329.287,431.179z"/>
	</g>
</g>
<g>
	<g>
		<path d="M368.87,391.595l-31.096-31.08c-1.56-1.562-4.09-1.561-5.652,0c-1.562,1.561-1.562,4.091,0,5.652l31.096,31.08
			c6.238,6.238,6.238,16.388,0,22.626c-6.237,6.237-16.379,6.237-22.617,0l-31.088-31.089c-1.561-1.561-4.091-1.561-5.652,0
			c-1.562,1.562-1.562,4.091,0,5.652l31.088,31.089c4.677,4.677,10.816,7.015,16.961,7.015c6.145,0,12.285-2.338,16.96-7.014
			C378.227,416.173,378.227,400.949,368.87,391.595z"/>
	</g>
</g>
<g>
	<g>
		<path d="M408.438,352.028L303.861,247.459c-1.561-1.562-4.091-1.562-5.652,0c-1.562,1.561-1.562,4.09,0,5.652l104.576,104.571
			c6.237,6.238,6.237,16.387,0,22.625c-6.23,6.23-16.372,6.223-22.61,0l-31.096-31.104c-1.56-1.562-4.09-1.562-5.652,0
			c-1.561,1.561-1.561,4.09,0,5.652l31.1,31.107c4.678,4.669,10.817,7.004,16.957,7.004c6.145,0,12.286-2.335,16.954-7.008
			C417.794,376.605,417.794,361.382,408.438,352.028z"/>
	</g>
</g>
<g>
	<g>
		<path d="M101.335,327.362c-16.727-32.815-22.422-66.096-22.477-66.432c-0.367-2.171-2.404-3.611-4.602-3.283
			c-2.174,0.364-3.646,2.424-3.283,4.598c0.234,1.406,5.93,34.789,23.242,68.746c0.707,1.387,2.108,2.183,3.564,2.183
			c0.609,0,1.229-0.14,1.811-0.437C101.558,331.733,102.338,329.329,101.335,327.362z"/>
	</g>
</g>
<g>
	<g>
		<path d="M219.017,183.154c-27.419-11.476-45.968-21.118-46.152-21.216c-1.976-1.031-4.373-0.262-5.395,1.694
			c-1.019,1.96-0.262,4.373,1.694,5.395c0.187,0.098,19.015,9.884,46.769,21.505c0.504,0.211,1.027,0.309,1.542,0.309
			c1.561,0,3.045-0.921,3.689-2.457C222.015,186.351,221.055,184.008,219.017,183.154z"/>
	</g>
</g>
<g>
	<g>
		<path d="M437.064,246.304c-2.257-0.222-4.142,1.425-4.345,3.619c-0.043,0.48-4.642,48.377-28.504,81.834
			c-1.281,1.8-0.863,4.294,0.933,5.578c0.706,0.5,1.514,0.742,2.319,0.742c1.248,0,2.478-0.582,3.26-1.674
			c25.103-35.202,29.767-83.709,29.955-85.754C440.881,248.451,439.262,246.503,437.064,246.304z"/>
	</g>
</g>
<g>
	<g>
		<path d="M272.766,442.483c-9.049-9.064-24.843-9.071-33.915-0.008l-16.961,16.961c-9.341,9.36-9.341,24.577,0.004,33.919
			c4.528,4.527,10.551,7.025,16.953,7.025h0.004c6.405,0,12.429-2.498,16.965-7.033l16.95-16.949
			C282.115,467.048,282.115,451.832,272.766,442.483z M267.113,470.746l-16.95,16.949c-3.024,3.025-7.041,4.691-11.312,4.691h-0.004
			c-4.267,0-8.28-1.663-11.301-4.684c-6.23-6.23-6.226-16.376,0-22.618l16.953-16.953c3.025-3.018,7.042-4.681,11.313-4.681
			c4.27,0,8.284,1.663,11.301,4.686C273.346,454.369,273.346,464.512,267.113,470.746z"/>
	</g>
</g>
<g>
	<g>
		<path d="M238.851,397.248c-9.04-9.06-24.85-9.052-33.914,0l-22.61,22.61c-9.345,9.357-9.345,24.574,0,33.93
			c4.528,4.528,10.547,7.022,16.949,7.022c6.406,0,12.433-2.498,16.966-7.03l22.609-22.609
			C248.204,421.818,248.204,406.602,238.851,397.248z M233.198,425.519l-22.609,22.609c-3.025,3.021-7.042,4.688-11.313,4.688
			c-4.267,0-8.279-1.663-11.297-4.681c-6.23-6.237-6.23-16.388,0-22.625l22.61-22.61c3.021-3.018,7.038-4.676,11.312-4.676
			c4.271,0,8.284,1.658,11.297,4.677C239.432,409.135,239.432,419.285,233.198,425.519z"/>
	</g>
</g>
<g>
	<g>
		<path d="M193.631,363.34c-9.052-9.069-24.862-9.076-33.922-0.008l-16.965,16.957c-4.532,4.536-7.023,10.564-7.019,16.969
			c0.004,6.406,2.502,12.43,7.034,16.953c4.521,4.53,10.54,7.02,16.95,7.02c6.402,0,12.425-2.49,16.957-7.02l16.965-16.965
			c4.532-4.531,7.027-10.555,7.027-16.957C200.658,373.88,198.163,367.861,193.631,363.34z M187.98,391.595l-16.965,16.965
			c-6.043,6.035-16.575,6.035-22.602,0c-3.021-3.021-4.688-7.034-4.692-11.305c-0.004-4.273,1.659-8.291,4.676-11.312l16.965-16.957
			c3.022-3.022,7.034-4.684,11.305-4.684c4.274,0,8.291,1.666,11.317,4.695c3.018,3.014,4.681,7.023,4.681,11.293
			C192.665,384.558,191.001,388.574,187.98,391.595z"/>
	</g>
</g>
<g>
	<g>
		<path d="M148.397,329.426c-9.06-9.057-24.846-9.072-33.906-0.008l-11.305,11.305c-9.35,9.35-9.35,24.566,0,33.922
			c4.524,4.529,10.543,7.02,16.949,7.02h0.004c6.405,0,12.428-2.495,16.961-7.028l11.305-11.305
			c4.532-4.531,7.027-10.551,7.023-16.953C155.424,339.977,152.929,333.957,148.397,329.426z M142.753,357.681l-11.305,11.305
			c-3.022,3.022-7.038,4.685-11.309,4.685h-0.004c-4.267,0-8.28-1.659-11.297-4.677c-6.23-6.238-6.23-16.383,0-22.617l11.305-11.305
			c3.018-3.018,7.03-4.681,11.293-4.681c4.27,0,8.283,1.667,11.31,4.688c3.021,3.022,4.688,7.034,4.688,11.301
			C147.434,350.647,145.774,354.66,142.753,357.681z"/>
	</g>
</g>
<g>
	<g>
		<path d="M344.568,153.613c-0.316-2.19-2.362-3.74-4.525-3.392c-3.282,0.472-80.862,11.89-115.323,46.351l-36.741,36.756
			c-9.349,9.349-9.349,24.557,0,33.906c4.676,4.677,10.82,7.019,16.965,7.019c6.137,0,12.277-2.338,16.949-7.011
			c12.585-12.577,48.795-41.635,65.011-25.443c1.56,1.562,4.09,1.562,5.652,0c1.561-1.561,1.561-4.09,0-5.652
			c-25.151-25.124-74.238,23.366-76.315,25.443c-6.235,6.23-16.376,6.23-22.61-0.008c-6.23-6.23-6.23-16.372,0-22.602l36.74-36.756
			c32.572-32.572,110.023-43.978,110.804-44.087C343.361,157.825,344.88,155.799,344.568,153.613z"/>
	</g>
</g>
<g>
	<g>
		<path d="M456.492,241.807L349.088,134.396c-1.56-1.562-4.09-1.562-5.652,0c-1.561,1.561-1.561,4.09,0,5.652L450.84,247.459
			c0.78,0.781,1.803,1.171,2.826,1.171c1.022,0,2.045-0.39,2.826-1.171C458.053,245.898,458.053,243.369,456.492,241.807z"/>
	</g>
</g>
<g>
	<g>
		<path d="M496.066,224.842L366.045,94.829c-1.56-1.562-4.09-1.562-5.652,0c-1.561,1.561-1.561,4.09,0,5.652l130.021,130.013
			c0.78,0.781,1.803,1.171,2.826,1.171s2.045-0.39,2.826-1.171C497.627,228.933,497.627,226.403,496.066,224.842z"/>
	</g>
</g>
<g>
	<g>
		<path d="M366.045,117.438c-1.56-1.561-4.09-1.561-5.652,0l-16.957,16.958c-1.561,1.561-1.561,4.09,0,5.652
			c0.781,0.781,1.804,1.171,2.826,1.171c1.023,0,2.046-0.39,2.826-1.171l16.957-16.958C367.607,121.529,367.607,119,366.045,117.438
			z"/>
	</g>
</g>
<g>
	<g>
		<path d="M473.449,224.849c-1.562-1.561-4.091-1.561-5.652,0l-16.957,16.958c-1.562,1.561-1.562,4.09,0,5.652
			c0.78,0.781,1.803,1.171,2.826,1.171c1.022,0,2.045-0.39,2.826-1.171l16.957-16.957C475.01,228.94,475.01,226.411,473.449,224.849
			z"/>
	</g>
</g>
<g>
	<g>
		<path d="M459.381,1.494c-1.562-1.562-4.091-1.562-5.652,0l-93.336,93.335c-1.561,1.561-1.561,4.09,0,5.652
			c0.781,0.781,1.804,1.171,2.826,1.171c1.023,0,2.046-0.39,2.826-1.171l93.336-93.335C460.942,5.585,460.942,3.056,459.381,1.494z"
			/>
	</g>
</g>
<g>
	<g>
		<path d="M510.83,210.094c-1.562-1.562-4.091-1.562-5.652,0l-14.764,14.748c-1.562,1.557-1.562,4.09,0,5.652
			c0.78,0.781,1.803,1.171,2.826,1.171s2.045-0.39,2.826-1.171l14.764-14.748C512.391,214.189,512.391,211.656,510.83,210.094z"/>
	</g>
</g>
<g>
	<g>
		<path d="M168.195,145.7c-1.561-1.562-4.091-1.562-5.652,0L55.132,253.096c-1.561,1.561-1.561,4.09,0,5.652
			c0.781,0.78,1.804,1.171,2.827,1.171c1.022,0,2.045-0.391,2.826-1.171l107.41-107.396
			C169.757,149.791,169.756,147.262,168.195,145.7z"/>
	</g>
</g>
<g>
	<g>
		<path d="M151.239,106.134c-1.561-1.562-4.09-1.562-5.652,0L15.566,236.147c-1.562,1.561-1.562,4.09,0,5.652
			c0.781,0.781,1.803,1.171,2.826,1.171c1.022,0,2.045-0.39,2.826-1.171l130.021-130.013
			C152.801,110.225,152.801,107.696,151.239,106.134z"/>
	</g>
</g>
<g>
	<g>
		<path d="M60.785,253.096l-16.958-16.949c-1.561-1.562-4.09-1.561-5.652,0c-1.562,1.561-1.562,4.09,0,5.652l16.957,16.949
			c0.781,0.78,1.804,1.171,2.827,1.171c1.022,0,2.045-0.391,2.826-1.171C62.346,257.187,62.346,254.658,60.785,253.096z"/>
	</g>
</g>
<g>
	<g>
		<path d="M168.196,145.7l-16.958-16.957c-1.561-1.562-4.09-1.562-5.652,0c-1.562,1.561-1.562,4.09,0,5.652l16.958,16.957
			c0.781,0.781,1.803,1.171,2.826,1.171c1.022,0,2.045-0.39,2.826-1.171C169.758,149.791,169.758,147.262,168.196,145.7z"/>
	</g>
</g>
<g>
	<g>
		<path d="M21.218,236.146l-14.1-14.1c-1.561-1.561-4.09-1.561-5.652,0c-1.561,1.562-1.561,4.091,0,5.653l14.1,14.1
			c0.781,0.781,1.803,1.171,2.826,1.171c1.022,0,2.045-0.39,2.826-1.172C22.78,240.237,22.78,237.708,21.218,236.146z"/>
	</g>
</g>
<g>
	<g>
		<path d="M151.238,106.133L46.63,1.525c-1.561-1.562-4.09-1.561-5.652,0c-1.562,1.561-1.562,4.09,0,5.652l104.608,104.609
			c0.781,0.78,1.804,1.171,2.826,1.171c1.023,0,2.046-0.391,2.826-1.172C152.8,110.224,152.8,107.695,151.238,106.133z"/>
	</g>
</g>
<g>
	<g>
		<path d="M20.464,187.426c-4.52-4.536-12.448-4.532-16.961-0.004c-4.665,4.665-4.673,12.269-0.008,16.957
			c2.264,2.264,5.278,3.513,8.487,3.513c3.208,0,6.222-1.249,8.478-3.513c2.264-2.264,3.513-5.277,3.509-8.482
			C23.969,192.692,22.724,189.682,20.464,187.426z M14.804,198.73c-1.506,1.503-4.157,1.491-5.648,0.004
			c-1.558-1.565-1.558-4.102,0.004-5.664c0.749-0.753,1.752-1.167,2.822-1.167c1.069,0,2.073,0.414,2.826,1.171
			c0.753,0.753,1.167,1.756,1.167,2.826C15.975,196.969,15.561,197.973,14.804,198.73z"/>
	</g>
</g>
<g>
</g>
<g>
</g>
<g>
</g>
<g>
</g>
<g>
</g>
<g>
</g>
<g>
</g>
<g>
</g>
<g>
</g>
<g>
</g>
<g>
</g>
<g>
</g>
<g>
</g>
<g>
</g>
<g>
</g>
</svg>
