<?xml version="1.0" encoding="iso-8859-1"?>
<!-- Generator: Adobe Illustrator 16.0.0, SVG Export Plug-In . SVG Version: 6.00 Build 0)  -->
<!DOCTYPE svg PUBLIC "-//W3C//DTD SVG 1.1//EN" "http://www.w3.org/Graphics/SVG/1.1/DTD/svg11.dtd">
<svg version="1.1" id="Capa_1" xmlns="http://www.w3.org/2000/svg" xmlns:xlink="http://www.w3.org/1999/xlink" x="0px" y="0px"
	 width="612.083px" height="612.083px" viewBox="0 0 612.083 612.083" style="enable-background:new 0 0 612.083 612.083;"
	 xml:space="preserve">
<g>
	<g>
		<path d="M538.075,341.578h-458c-2.9,0-5.3-2.4-5.3-5.3c0-2.9,2.4-5.3,5.3-5.3h454.1l65.301-198.1h-477c-1.4,0-2.7-0.6-3.7-1.5
			l-117.2-117.2c-2.1-2.1-2.1-5.4,0-7.5s5.4-2.1,7.5,0l115.6,115.6h482.1c1.7,0,3.3,0.8,4.3,2.2s1.3,3.1,0.7,4.7l-68.7,208.699
			C542.375,340.078,540.275,341.578,538.075,341.578z"/>
		<path d="M35.875,457.578c-0.5,0-1.1-0.1-1.7-0.3c-2.8-0.9-4.3-3.9-3.4-6.7l38.3-116c0.9-2.8,3.9-4.3,6.7-3.4
			c2.8,0.9,4.3,3.9,3.4,6.7l-38.3,116C40.075,456.078,38.075,457.578,35.875,457.578z"/>
		<path d="M422.075,457.578h-386.2c-2.9,0-5.3-2.4-5.3-5.3c0-2.9,2.4-5.3,5.3-5.3h386.2c2.9,0,5.3,2.399,5.3,5.3
			C427.375,455.178,424.976,457.578,422.075,457.578z"/>
		<path d="M129.675,606.378c-44.1,0-80-35.899-80-80c0-44.1,35.9-80,80-80s80,35.9,80,80
			C209.675,570.479,173.775,606.378,129.675,606.378z M129.675,456.979c-38.3,0-69.5,31.199-69.5,69.5c0,38.3,31.2,69.5,69.5,69.5
			c38.3,0,69.5-31.2,69.5-69.5C199.175,488.078,167.975,456.979,129.675,456.979z"/>
		<path d="M422.075,606.979c-39.7,0-72.9-28.5-78.8-67.9c-0.4-2.9,1.6-5.6,4.399-6c2.9-0.4,5.601,1.6,6,4.4
			c5.101,34.1,33.9,58.899,68.301,58.899c38.3,0,69.5-31.2,69.5-69.5s-31.2-69.5-69.5-69.5c-2.9,0-5.301-2.399-5.301-5.3
			s2.4-5.3,5.301-5.3c44.1,0,80,35.899,80,80C501.976,570.878,466.175,606.979,422.075,606.979z"/>
	</g>
</g>
<g>
</g>
<g>
</g>
<g>
</g>
<g>
</g>
<g>
</g>
<g>
</g>
<g>
</g>
<g>
</g>
<g>
</g>
<g>
</g>
<g>
</g>
<g>
</g>
<g>
</g>
<g>
</g>
<g>
</g>
</svg>
