<?xml version="1.0"?>
<svg xmlns="http://www.w3.org/2000/svg" viewBox="0 -16 511.998 511" width="512px" height="512px" class=""><g><path d="m29.644531 168.003906h26.441407v-71.460937c0-5.539063 4.488281-10.027344 10.027343-10.027344h65.925781v-41.28125c0-5.535156 4.492188-10.027344 10.027344-10.027344h65.929688v-24.679687c0-5.539063 4.488281-10.027344 10.023437-10.027344h151.910157c5.539062 0 10.027343 4.488281 10.027343 10.027344v100.886718h65.929688c5.535156 0 10.027343 4.488282 10.027343 10.027344v46.5625h26.441407c8.160156 0 15.574219 3.332032 20.941406 8.699219s8.699219 12.78125 8.699219 20.945313v42.25c0 8.164062-3.332032 15.578124-8.699219 20.945312-3.59375 3.59375-8.101563 6.273438-13.136719 7.652344l-58.570312 202.804687c-1.265625 4.371094-5.261719 7.214844-9.597656 7.210938l-125.992188.015625v-.007813c-5.523438 0-10-4.476562-10-10 0-5.523437 4.476562-10 10-10v-.027343h118.488281l54.570313-188.945313h-173.058594v-.027344c-5.523438 0-10-4.476562-10-10 0-5.523437 4.476562-10 10-10v-.027343h186.355469c2.625 0 5.023437-1.082032 6.765625-2.824219 1.742187-1.742188 2.824218-4.140625 2.824218-6.765625v-42.253906c0-2.628907-1.082031-5.023438-2.824218-6.765626-1.742188-1.742187-4.140625-2.824218-6.765625-2.824218-150.90625 0-301.808594 0-452.710938 0-2.628906 0-5.023437 1.082031-6.765625 2.824218-1.742187 1.742188-2.824218 4.136719-2.824218 6.765626v42.253906c0 2.625 1.082031 5.019531 2.824218 6.765625 1.742188 1.742187 4.136719 2.824219 6.765625 2.824219h186.355469v.027343c5.523438 0 10 4.476563 10 10 0 5.523438-4.476562 10-10 10v.027344h-173.0625l54.570312 188.945313h118.492188v.027343c5.523438 0 10 4.476563 10 10 0 5.523438-4.476562 10-10 10v.015625l-125.992188.011719c-4.875 0-8.9375-3.476563-9.839843-8.082031l-58.328125-201.96875c-5.039063-1.378906-9.546875-4.058594-13.140625-7.648438-5.367188-5.371094-8.699219-12.785156-8.699219-20.949218v-42.25c0-8.164063 3.332031-15.578126 8.699219-20.945313 5.367187-5.367187 12.78125-8.699219 20.945312-8.699219zm226.355469 81.515625c-5.523438 0-10 4.476563-10 10 0 5.519531 4.476562 10 10 10s10-4.480469 10-10c0-5.523437-4.476562-10-10-10zm0 209c-5.523438 0-10 4.476563-10 10 0 5.523438 4.476562 10 10 10s10-4.476562 10-10c0-5.523437-4.476562-10-10-10zm123.960938-327.050781v36.535156h55.898437v-36.535156zm-303.820313 36.535156h55.898437v-61.433594h-55.898437zm75.953125 0h55.902344v-112.742187h-55.902344zm75.957031 0h131.851563v-147.449218h-131.851563zm-96.011719 131.503906v129.019532c0 5.539062 4.492188 10.027344 10.027344 10.027344 5.539063 0 10.027344-4.488282 10.027344-10.027344v-129.019532c0-5.539062-4.488281-10.027343-10.027344-10.027343-5.535156 0-10.027344 4.488281-10.027344 10.027343zm227.863282 0v129.019532c0 5.539062 4.492187 10.027344 10.027344 10.027344 5.539062 0 10.027343-4.488282 10.027343-10.027344v-129.019532c0-5.539062-4.488281-10.027343-10.027343-10.027343-5.535157 0-10.027344 4.488281-10.027344 10.027343zm-75.953125 0v129.019532c0 5.539062 4.488281 10.027344 10.027343 10.027344 5.539063 0 10.027344-4.488282 10.027344-10.027344v-129.019532c0-5.539062-4.488281-10.027343-10.027344-10.027343-5.535156 0-10.027343 4.488281-10.027343 10.027343zm-75.953125 0v129.019532c0 5.539062 4.488281 10.027344 10.027344 10.027344 5.535156 0 10.027343-4.488282 10.027343-10.027344v-129.019532c0-5.539062-4.492187-10.027343-10.027343-10.027343-5.539063 0-10.027344 4.488281-10.027344 10.027343zm0 0" fill-rule="evenodd" data-original="#000000" class="active-path" data-old_color="#B2B2B1" fill="#B1B1AF"/></g> </svg>
