<?xml version="1.0" encoding="iso-8859-1"?>
<!-- Generator: Adobe Illustrator 19.0.0, SVG Export Plug-In . SVG Version: 6.00 Build 0)  -->
<svg xmlns="http://www.w3.org/2000/svg" xmlns:xlink="http://www.w3.org/1999/xlink" version="1.1" id="Capa_1" x="0px" y="0px" viewBox="0 0 512 512" style="enable-background:new 0 0 512 512;" xml:space="preserve" width="512px" height="512px">
<g>
	<g>
		<g>
			<path d="M51.2,59.733h85.333c4.713,0,8.533-3.82,8.533-8.533s-3.82-8.533-8.533-8.533H51.2c-4.713,0-8.533,3.82-8.533,8.533     S46.487,59.733,51.2,59.733z" fill="#144360"/>
			<path d="M273.067,42.667h-102.4c-4.713,0-8.533,3.82-8.533,8.533s3.82,8.533,8.533,8.533h102.4c4.713,0,8.533-3.82,8.533-8.533     S277.779,42.667,273.067,42.667z" fill="#144360"/>
			<path d="M136.533,128H51.2c-4.713,0-8.533,3.82-8.533,8.533s3.82,8.533,8.533,8.533h85.333c4.713,0,8.533-3.82,8.533-8.533     S141.246,128,136.533,128z" fill="#144360"/>
			<path d="M273.067,128h-102.4c-4.713,0-8.533,3.82-8.533,8.533s3.82,8.533,8.533,8.533h102.4c2.264,0.001,4.435-0.897,6.035-2.498     c1.601-1.601,2.499-3.772,2.498-6.035c0.001-2.264-0.897-4.435-2.498-6.035C277.501,128.897,275.33,127.999,273.067,128z" fill="#144360"/>
			<path d="M273.067,85.333h-153.6c-4.713,0-8.533,3.82-8.533,8.533c0,4.713,3.82,8.533,8.533,8.533h153.6     c2.264,0.001,4.435-0.897,6.035-2.498c1.601-1.601,2.499-3.772,2.498-6.035c0.001-2.264-0.897-4.435-2.498-6.035     C277.501,86.231,275.33,85.332,273.067,85.333z" fill="#144360"/>
			<path d="M460.8,68.267H358.4c-4.713,0-8.533,3.82-8.533,8.533s3.82,8.533,8.533,8.533h102.4c4.713,0,8.533-3.82,8.533-8.533     S465.513,68.267,460.8,68.267z" fill="#144360"/>
			<path d="M460.8,153.6H358.4c-4.713,0-8.533,3.82-8.533,8.533s3.82,8.533,8.533,8.533h102.4c4.713,0,8.533-3.82,8.533-8.533     S465.513,153.6,460.8,153.6z" fill="#144360"/>
			<path d="M460.8,110.933H358.4c-4.713,0-8.533,3.82-8.533,8.533S353.687,128,358.4,128h102.4c4.713,0,8.533-3.82,8.533-8.533     S465.513,110.933,460.8,110.933z" fill="#144360"/>
			<path d="M51.2,102.4h34.133c4.713,0,8.533-3.821,8.533-8.533c0-4.713-3.821-8.533-8.533-8.533H51.2     c-4.713,0-8.533,3.821-8.533,8.533C42.667,98.579,46.487,102.4,51.2,102.4z" fill="#144360"/>
			<path d="M493.108,454.817l-46.817-26.083v-8.567c6.091-7.586,10.748-16.219,13.742-25.475c0.28-1.383,0.971-2.65,1.983-3.633     c4.646-4.462,7.286-10.616,7.317-17.058v-14.583c-0.011-3.777-0.922-7.496-2.658-10.85L465.8,346.9     c-0.479-0.919-0.731-1.939-0.733-2.975V322.95c-0.396-23.187-19.479-41.681-42.667-41.35h-25.6     c-23.188-0.331-42.271,18.163-42.667,41.35v20.975c-0.001,1.027-0.25,2.039-0.725,2.95l-0.892,1.717     c-1.733,3.346-2.641,7.057-2.65,10.825V374c0.036,6.449,2.681,12.609,7.333,17.075c1.003,0.982,1.688,2.242,1.967,3.617     c2.994,9.257,7.65,17.889,13.742,25.475v8.567l-46.942,26.158c-11.504,6.567-18.651,18.754-18.766,32v16.575     c-0.001,2.264,0.897,4.435,2.498,6.035c1.601,1.601,3.772,2.499,6.035,2.498h187.733c2.264,0.001,4.435-0.897,6.035-2.498     c1.601-1.601,2.499-3.772,2.498-6.035v-16.575C511.871,473.597,504.673,461.376,493.108,454.817z M401.067,494.933h-76.8v-8.042     c0.045-7.124,3.911-13.675,10.125-17.158l46.289-25.787l20.386,20.387V494.933z M389.975,429.108v-10.483     c-0.008-2.714-0.897-5.352-2.533-7.517c-5.006-5.914-8.925-12.669-11.575-19.95c-0.984-4.728-3.371-9.05-6.85-12.4h0     c-1.317-1.234-2.07-2.954-2.083-4.758v-14.583c0.005-1.027,0.253-2.038,0.725-2.95l0.892-1.717     c1.733-3.346,2.641-7.057,2.65-10.825V322.95c0.387-13.764,11.834-24.623,25.6-24.283h25.6     c13.766-0.339,25.213,10.519,25.6,24.283v20.975c0.011,3.777,0.922,7.496,2.658,10.85l0.875,1.667     c0.476,0.92,0.727,1.939,0.733,2.975V374c-0.013,1.805-0.766,3.525-2.083,4.758c-3.477,3.352-5.864,7.672-6.85,12.4     c-2.667,7.315-6.609,14.1-11.642,20.042c-1.6,2.145-2.465,4.749-2.467,7.425v10.483L409.6,448.733L389.975,429.108z      M494.933,494.933h-76.8v-30.6l20.388-20.388l46.162,25.713c6.275,3.475,10.192,10.061,10.25,17.233V494.933z" fill="#144360"/>
			<path d="M158.758,454.342c-1.858-1.084-3.7-2.158-5.475-3.258c-3.842-2.392-8.292-4.875-12.809-7.35h26.208     c6.358,0.017,12.193-3.521,15.117-9.167c2.85-5.429,2.429-11.996-1.092-17.017c-11.424-17.67-19.492-37.296-23.8-57.892     c-1.126-5.323-1.69-10.75-1.683-16.192c0.049-16.373-6.408-32.095-17.95-43.708c-11.456-11.618-27.092-18.158-43.408-18.158     c-16.316,0-31.952,6.541-43.408,18.158c-11.542,11.613-17.999,27.335-17.95,43.708c0.008,5.427-0.554,10.84-1.675,16.15     c-4.312,20.604-12.382,40.237-23.808,57.917c-3.536,5.019-3.967,11.595-1.117,17.033c2.924,5.646,8.758,9.184,15.116,9.167H47.85     c-1.5,0.867-3.017,1.725-4.525,2.592c-6.433,3.683-12.858,7.358-18.625,10.85c-6.108,3.7-24.7,14.967-24.7,36.158v10.133     c-0.001,2.264,0.897,4.435,2.498,6.035S6.27,512.001,8.533,512H179.2c2.264,0.001,4.435-0.897,6.035-2.498     s2.499-3.772,2.498-6.035v-10.133c-0.022-9.11-3.408-17.892-9.508-24.658C172.524,462.91,165.956,458.074,158.758,454.342z      M20.992,427.333c12.724-19.555,21.72-41.296,26.533-64.125c1.369-6.491,2.056-13.108,2.05-19.742     c-0.038-11.873,4.645-23.273,13.017-31.692c8.246-8.385,19.514-13.108,31.275-13.108s23.029,4.723,31.275,13.108     c8.372,8.418,13.055,19.819,13.016,31.692c-0.005,6.648,0.685,13.279,2.058,19.783c4.721,22.626,13.703,44.148,26.467,63.417     H123.55c-3.23-0.164-6.386,1.002-8.733,3.226c-2.348,2.224-3.682,5.312-3.693,8.546c-0.083,0.311-0.146,0.626-0.191,0.945v4.35     c-0.565,6.858-6.535,11.989-13.4,11.517H90.2c-6.865,0.473-12.835-4.659-13.4-11.517v-4.35c-0.044-0.312-0.106-0.621-0.186-0.925     c-0.008-3.237-1.342-6.329-3.691-8.557c-2.348-2.228-5.507-3.397-8.74-3.235L20.992,427.333z M170.667,494.933h-153.6v-1.6     c0-8.008,5.083-14.658,16.483-21.558c5.65-3.425,11.95-7.025,18.25-10.633c3.536-2.026,7.048-4.044,10.479-6.04     c5.186,10.663,16.065,17.37,27.921,17.215h7.333c11.909,0.16,22.829-6.604,27.992-17.336c1.569,0.869,3.133,1.736,4.733,2.611     c4.9,2.683,9.833,5.383,14,7.975c1.908,1.192,3.9,2.35,5.908,3.517c5.635,2.877,10.809,6.579,15.35,10.983     c3.294,3.636,5.128,8.361,5.15,13.267V494.933z" fill="#144360"/>
			<path d="M486.4,34.133H324.267V25.6c-0.015-14.132-11.468-25.585-25.6-25.6H25.6C11.468,0.015,0.015,11.468,0,25.6v136.533     c0.015,14.132,11.468,25.585,25.6,25.6h59.733v34.133c-0.001,3.196,1.785,6.125,4.627,7.588c2.842,1.462,6.264,1.213,8.864-0.646     l57.509-41.075h31.4v8.533c0.015,14.132,11.468,25.585,25.6,25.6h142.333l57.509,41.075c1.445,1.037,3.179,1.594,4.958,1.592     c1.359-0.003,2.697-0.325,3.908-0.942c2.841-1.465,4.626-4.395,4.625-7.592v-34.133H486.4c14.132-0.015,25.585-11.468,25.6-25.6     V59.733C511.985,45.601,500.532,34.149,486.4,34.133z M153.6,170.667c-1.778,0.001-3.512,0.557-4.958,1.592L102.4,205.283V179.2     c0.001-2.264-0.897-4.435-2.498-6.035s-3.772-2.499-6.035-2.498H25.6c-4.711-0.003-8.53-3.822-8.533-8.533V25.6     c0.003-4.711,3.822-8.53,8.533-8.533h273.067c4.712,0.003,8.53,3.822,8.533,8.533v136.533c-0.003,4.711-3.822,8.53-8.533,8.533     H153.6z M494.933,196.267c-0.003,4.712-3.822,8.53-8.533,8.533h-68.267c-2.264-0.001-4.435,0.897-6.035,2.498     s-2.499,3.772-2.498,6.035v26.083l-46.242-33.025c-1.446-1.034-3.18-1.591-4.958-1.592H213.333     c-4.712-0.003-8.53-3.822-8.533-8.533v-8.533h93.867c14.132-0.015,25.585-11.468,25.6-25.6V51.2H486.4     c4.712,0.003,8.53,3.822,8.533,8.533V196.267z" fill="#144360"/>
		</g>
	</g>
</g>
<g>
</g>
<g>
</g>
<g>
</g>
<g>
</g>
<g>
</g>
<g>
</g>
<g>
</g>
<g>
</g>
<g>
</g>
<g>
</g>
<g>
</g>
<g>
</g>
<g>
</g>
<g>
</g>
<g>
</g>
</svg>
