<?xml version="1.0"?>
<svg xmlns="http://www.w3.org/2000/svg" height="512px" viewBox="-40 0 496 496" width="512px"><g><path d="m400 216v-104c0-17.648438-14.351562-32-32-32v-40c0-22.054688-17.945312-40-40-40-19.3125 0-35.472656 13.769531-39.191406 32h-220.121094l-68.6875 68.6875v395.3125h336v-101.574219l32-48v-250.425781c8.824219 0 16 7.175781 16 16v104c0 17.648438 14.351562 32 32 32v-16c-8.824219 0-16-7.175781-16-16zm-89.054688 136h34.101563l-17.046875 25.574219zm25.054688-16v-136h-16v136h-16v-224h16v72h16v-72h16v224zm-32-240v-16h48v16zm24-80c13.230469 0 24 10.769531 24 24v24h-48v-24c0-13.230469 10.769531-24 24-24zm-264 43.3125v36.6875h-36.6875zm-48 420.6875v-368h64v-64h208v298.425781l32 48v85.574219zm0 0" data-original="#000000" class="active-path" data-old_color="#000000" fill="#154360"/><path d="m112 232.40625v-8.40625h-16v8.40625c-13.535156 1.960938-24 13.53125-24 27.59375 0 15.441406 12.558594 28 28 28h8c6.617188 0 12 5.382812 12 12s-5.382812 12-12 12h-8c-6.617188 0-12-5.382812-12-12v-4h-16v4c0 14.0625 10.464844 25.632812 24 27.59375v8.40625h16v-8.40625c13.535156-1.960938 24-13.53125 24-27.59375 0-15.441406-12.558594-28-28-28h-8c-6.617188 0-12-5.382812-12-12s5.382812-12 12-12h8c6.617188 0 12 5.382812 12 12v4h16v-4c0-14.0625-10.464844-25.632812-24-27.59375zm0 0" data-original="#000000" class="active-path" data-old_color="#000000" fill="#154360"/><path d="m32 368h240v-208h-240zm16-16v-144h208v144zm208-176v16h-208v-16zm0 0" data-original="#000000" class="active-path" data-old_color="#000000" fill="#154360"/><path d="m32 384h16v16h-16zm0 0" data-original="#000000" class="active-path" data-old_color="#000000" fill="#154360"/><path d="m64 384h112v16h-112zm0 0" data-original="#000000" class="active-path" data-old_color="#000000" fill="#154360"/><path d="m32 416h16v16h-16zm0 0" data-original="#000000" class="active-path" data-old_color="#000000" fill="#154360"/><path d="m64 416h112v16h-112zm0 0" data-original="#000000" class="active-path" data-old_color="#000000" fill="#154360"/><path d="m32 448h16v16h-16zm0 0" data-original="#000000" class="active-path" data-old_color="#000000" fill="#154360"/><path d="m192 448h16v16h-16zm0 0" data-original="#000000" class="active-path" data-old_color="#000000" fill="#154360"/><path d="m224 448h16v16h-16zm0 0" data-original="#000000" class="active-path" data-old_color="#000000" fill="#154360"/><path d="m256 448h16v16h-16zm0 0" data-original="#000000" class="active-path" data-old_color="#000000" fill="#154360"/><path d="m64 448h112v16h-112zm0 0" data-original="#000000" class="active-path" data-old_color="#000000" fill="#154360"/><path d="m192 416h80v16h-80zm0 0" data-original="#000000" class="active-path" data-old_color="#000000" fill="#154360"/><path d="m192 384h80v16h-80zm0 0" data-original="#000000" class="active-path" data-old_color="#000000" fill="#154360"/><path d="m144 64h128v16h-128zm0 0" data-original="#000000" class="active-path" data-old_color="#000000" fill="#154360"/><path d="m144 128h128v16h-128zm0 0" data-original="#000000" class="active-path" data-old_color="#000000" fill="#154360"/><path d="m144 96h56v16h-56zm0 0" data-original="#000000" class="active-path" data-old_color="#000000" fill="#154360"/><path d="m216 96h56v16h-56zm0 0" data-original="#000000" class="active-path" data-old_color="#000000" fill="#154360"/></g> </svg>
