<?xml version="1.0" encoding="iso-8859-1"?>
<!-- Generator: Adobe Illustrator 19.0.0, SVG Export Plug-In . SVG Version: 6.00 Build 0)  -->
<svg xmlns="http://www.w3.org/2000/svg" xmlns:xlink="http://www.w3.org/1999/xlink" version="1.1" id="Capa_1" x="0px" y="0px" viewBox="0 0 512 512" style="enable-background:new 0 0 512 512;" xml:space="preserve" width="512px" height="512px">
<g>
	<g>
		<path d="M299.515,252.237c10.204-10.761,16.484-25.279,16.484-41.244c0-33.085-26.917-60.001-60.001-60.001    c-33.085,0-60.001,26.917-60.001,60.001c0,15.965,6.28,30.483,16.484,41.244c-27.695,15.363-46.485,44.906-46.485,78.759v15    c0,8.284,6.716,15,15,15h150.003c8.284,0,15-6.716,15-15v-15C346,297.143,327.209,267.6,299.515,252.237z M255.998,180.992    c16.542,0,30.001,13.458,30.001,30.001c0,16.542-13.458,30.001-30.001,30.001c-16.542,0-30.001-13.458-30.001-30.001    C225.997,194.45,239.455,180.992,255.998,180.992z M195.996,330.995c0-33.085,26.917-60.001,60.001-60.001    c33.085,0,60.001,26.917,60.001,60.001H195.996z" fill="#154360"/>
	</g>
</g>
<g>
	<g>
		<path d="M296.778,35.558L266.777,4.557c-5.858-6.049-15.66-6.102-21.559,0l-30.001,31.001c-5.761,5.953-5.605,15.449,0.348,21.21    c5.953,5.762,15.449,5.605,21.211-0.348l4.221-4.361V90.99c0,8.284,6.716,15,15,15c8.284,0,15-6.716,15-15V52.058l4.221,4.362    c5.763,5.955,15.259,6.107,21.211,0.348C302.383,51.007,302.539,41.511,296.778,35.558z" fill="#154360"/>
	</g>
</g>
<g>
	<g>
		<path d="M296.429,455.219c-5.952-5.762-15.449-5.606-21.211,0.348l-4.221,4.362v-38.932c0.001-8.284-6.714-15-14.999-15    c-8.284,0-15,6.716-15,15v38.931l-4.221-4.361c-5.76-5.953-15.257-6.109-21.211-0.348c-5.953,5.761-6.109,15.257-0.348,21.21    l30.001,31.001c2.703,2.804,6.603,4.543,10.697,4.565c0.028,0,0.057,0.004,0.085,0.004c4.18,0,8.104-1.802,10.775-4.569    l30.001-31.001C302.538,470.477,302.382,460.98,296.429,455.219z" fill="#154360"/>
	</g>
</g>
<g>
	<g>
		<path d="M90.994,240.993H52.063l4.362-4.221c5.953-5.761,6.109-15.257,0.348-21.211c-5.761-5.953-15.257-6.109-21.211-0.348    L4.562,245.214c-6.131,5.945-6.01,15.743-0.001,21.558l31.001,30.001c5.953,5.761,15.449,5.606,21.211-0.348    c5.761-5.953,5.605-15.449-0.348-21.211l-4.361-4.221h38.931c8.284,0,15-6.716,15-15    C105.994,247.709,99.278,240.993,90.994,240.993z" fill="#154360"/>
	</g>
</g>
<g>
	<g>
		<path d="M507.436,245.214l-31.001-30.001c-5.953-5.762-15.449-5.606-21.21,0.348c-5.761,5.953-5.605,15.449,0.348,21.211    l4.362,4.221h-38.932c-8.284,0-15,6.716-15,15c0,8.284,6.716,15,15,15h38.931l-4.361,4.221    c-5.953,5.761-6.109,15.257-0.348,21.211c5.761,5.954,15.258,6.108,21.21,0.348l31.001-30.001    C513.401,261.005,513.618,251.218,507.436,245.214z" fill="#154360"/>
	</g>
</g>
<g>
	<g>
		<path d="M149.929,362.062c-5.857-5.858-15.355-5.858-21.214,0l-27.722,27.722v-6.213c0-8.284-6.716-15-15-15s-15,6.716-15,15    v42.427c0,8.37,6.846,15,15,15h42.427c8.284,0,15-6.716,15-15s-6.716-15-15-15h-6.213l27.721-27.722    C155.787,377.418,155.787,367.92,149.929,362.062z" fill="#154360"/>
	</g>
</g>
<g>
	<g>
		<path d="M426.003,70.989h-42.427c-8.284,0-15,6.716-15,15c0,8.284,6.716,15,15,15h6.213l-27.722,27.722    c-5.858,5.857-5.858,15.354,0,21.212c5.857,5.858,15.356,5.858,21.214,0l27.722-27.721v6.213c0,8.284,6.716,15,15,15    c8.284,0,15-6.716,15-15V85.99C441.003,77.918,434.469,70.989,426.003,70.989z" fill="#154360"/>
	</g>
</g>
<g>
	<g>
		<path d="M426.002,368.569c-8.284,0-15,6.716-15,15v6.213l-27.722-27.722c-5.857-5.858-15.355-5.858-21.214,0    c-5.858,5.858-5.858,15.355,0,21.214l27.721,27.722h-6.213c-8.284,0-15,6.716-15,15c0,8.284,6.716,15,15,15h42.427    c8.171,0,15-6.652,15-15V383.57h0.001C441.002,375.285,434.286,368.569,426.002,368.569z" fill="#154360"/>
	</g>
</g>
<g>
	<g>
		<path d="M149.929,128.711l-27.722-27.722h6.213c8.285,0.001,15.001-6.715,15.001-14.999c0-8.284-6.716-15-15-15H85.994    c-0.042,0-0.082,0.006-0.123,0.006c-8.204,0.062-14.877,6.76-14.877,14.994v42.427c0,8.284,6.716,15,15,15s15-6.716,15-15v-6.213    l27.722,27.721c5.857,5.858,15.356,5.858,21.214,0C155.787,144.066,155.787,134.569,149.929,128.711z" fill="#154360"/>
	</g>
</g>
<g>
</g>
<g>
</g>
<g>
</g>
<g>
</g>
<g>
</g>
<g>
</g>
<g>
</g>
<g>
</g>
<g>
</g>
<g>
</g>
<g>
</g>
<g>
</g>
<g>
</g>
<g>
</g>
<g>
</g>
</svg>
