<?xml version="1.0"?>
<svg xmlns="http://www.w3.org/2000/svg" height="512px" viewBox="-27 -27 860.00001 860.00001" width="512px"><path d="m403.207031 806.332031c-222.285156 0-403.1249998-180.839843-403.1249998-403.125 0-222.285156 180.8398438-403.1249998 403.1249998-403.1249998 222.285157 0 403.125 180.8398438 403.125 403.1249998 0 222.285157-180.839843 403.125-403.125 403.125zm0-779.375c-207.464843 0-376.25 168.785157-376.25 376.25 0 207.46875 168.785157 376.25 376.25 376.25 207.46875 0 376.25-168.78125 376.25-376.25 0-207.464843-168.78125-376.25-376.25-376.25zm0 0" fill="#D80027"/><path d="m403.261719 591.332031c-.027344 0-.046875 0-.066407 0-29.726562-.011719-54.292968-23.25-55.933593-52.933593l-22.144531-398.542969c-1.714844-30.839844 21.988281-57.335938 52.835937-59.054688 1.082031-.066406 2.082031-.09375 3.101563-.09375h44.347656c30.890625 0 56.035156 25.144531 56.035156 56.035157 0 1.011718-.03125 2.019531-.078125 3.027343l-22.167969 398.640625c-1.628906 29.679688-26.191406 52.921875-55.929687 52.921875zm-22.210938-483.75-1.671875.054688c-15.984375.890625-28.320312 14.667969-27.425781 30.71875l22.144531 398.558593c.855469 15.445313 13.640625 27.542969 29.109375 27.542969h.054688c15.46875 0 28.253906-12.082031 29.101562-27.53125l22.191407-400.1875c0-16.074219-13.085938-29.15625-29.160157-29.15625zm0 0" fill="#D80027"/><path d="m403.207031 725.707031c-29.636719 0-53.75-24.105469-53.75-53.75 0-29.640625 24.113281-53.75 53.75-53.75 29.644531 0 53.75 24.109375 53.75 53.75 0 29.644531-24.105469 53.75-53.75 53.75zm0-80.625c-14.824219 0-26.875 12.0625-26.875 26.875 0 14.816407 12.050781 26.875 26.875 26.875 14.816407 0 26.875-12.058593 26.875-26.875 0-14.8125-12.058593-26.875-26.875-26.875zm0 0" fill="#D80027"/></svg>
