<?xml version="1.0" encoding="iso-8859-1"?>
<!-- Generator: Adobe Illustrator 19.0.0, SVG Export Plug-In . SVG Version: 6.00 Build 0)  -->
<svg xmlns="http://www.w3.org/2000/svg" xmlns:xlink="http://www.w3.org/1999/xlink" version="1.1" id="Capa_1" x="0px" y="0px" viewBox="0 0 512 512" style="enable-background:new 0 0 512 512;" xml:space="preserve" width="512px" height="512px">
<g>
	<g>
		<path d="M502,0H10C4.477,0,0,4.477,0,10v120c0,5.523,4.477,10,10,10h10v322c0,5.523,4.477,10,10,10h30v30c0,5.523,4.477,10,10,10    h412c5.523,0,10-4.477,10-10V140h10c5.523,0,10-4.477,10-10V10C512,4.477,507.523,0,502,0z M40,452V140h392v312H40z M472,492H80    v-20h362c5.523,0,10-4.477,10-10V140h20V492z M492,120H20V20h472V120z" fill="#FFFFFF"/>
	</g>
</g>
<g>
	<g>
		<path d="M471.98,69.36C471.65,64.11,467.26,60,462,60c-5.51,0-10,4.49-10,10s4.49,10,10,10s10-4.49,10-10    C472,69.79,471.99,69.57,471.98,69.36z" fill="#FFFFFF"/>
	</g>
</g>
<g>
	<g>
		<path d="M422,60H90c-5.51,0-10,4.49-10,10s4.49,10,10,10h332c5.51,0,10-4.49,10-10S427.51,60,422,60z" fill="#FFFFFF"/>
	</g>
</g>
<g>
	<g>
		<path d="M50,60c-5.51,0-10,4.49-10,10s4.49,10,10,10s10-4.49,10-10S55.51,60,50,60z" fill="#FFFFFF"/>
	</g>
</g>
<g>
	<g>
		<path d="M217.071,368.928c-3.905-3.906-10.237-3.905-14.142,0.001l-21.697,21.697l-6.125-8.481    c-3.234-4.479-9.485-5.486-13.962-2.252c-4.477,3.234-5.485,9.484-2.252,13.962l13,18c1.716,2.375,4.387,3.879,7.308,4.113    c0.267,0.021,0.534,0.032,0.799,0.032c2.641,0,5.188-1.046,7.071-2.929l30-30C220.976,379.166,220.976,372.834,217.071,368.928z" fill="#FFFFFF"/>
	</g>
</g>
<g>
	<g>
		<path d="M345,396c-5.52,0-10,4.48-10,10c0,5.52,4.48,10,10,10c5.52,0,10-4.48,10-10C355,400.48,350.52,396,345,396z" fill="#FFFFFF"/>
	</g>
</g>
<g>
	<g>
		<path d="M290,396c-5.52,0-10,4.48-10,10c0,5.52,4.48,10,10,10c5.52,0,10-4.48,10-10C300,400.48,295.52,396,290,396z" fill="#FFFFFF"/>
	</g>
</g>
<g>
	<g>
		<path d="M125,396c-5.52,0-10,4.48-10,10c0,5.52,4.48,10,10,10s10-4.48,10-10C135,400.48,130.52,396,125,396z" fill="#FFFFFF"/>
	</g>
</g>
<g>
	<g>
		<path d="M70,396c-5.52,0-10,4.48-10,10c0,5.52,4.48,10,10,10s10-4.48,10-10C80,400.48,75.52,396,70,396z" fill="#FFFFFF"/>
	</g>
</g>
<g>
	<g>
		<path d="M235,396c-5.52,0-10,4.48-10,10c0,5.52,4.48,10,10,10s10-4.48,10-10C245,400.48,240.52,396,235,396z" fill="#FFFFFF"/>
	</g>
</g>
<g>
	<g>
		<path d="M180,340c-5.52,0-10,4.48-10,10c0,5.52,4.48,10,10,10s10-4.48,10-10C190,344.48,185.52,340,180,340z" fill="#FFFFFF"/>
	</g>
</g>
<g>
	<g>
		<path d="M290,340c-5.52,0-10,4.48-10,10c0,5.52,4.48,10,10,10c5.52,0,10-4.48,10-10C300,344.48,295.52,340,290,340z" fill="#FFFFFF"/>
	</g>
</g>
<g>
	<g>
		<path d="M125,340c-5.52,0-10,4.48-10,10c0,5.52,4.48,10,10,10s10-4.48,10-10C135,344.48,130.52,340,125,340z" fill="#FFFFFF"/>
	</g>
</g>
<g>
	<g>
		<path d="M400,340c-5.52,0-10,4.48-10,10c0,5.52,4.48,10,10,10c5.52,0,10-4.48,10-10C410,344.48,405.52,340,400,340z" fill="#FFFFFF"/>
	</g>
</g>
<g>
	<g>
		<path d="M70,340c-5.52,0-10,4.48-10,10c0,5.52,4.48,10,10,10s10-4.48,10-10C80,344.48,75.52,340,70,340z" fill="#FFFFFF"/>
	</g>
</g>
<g>
	<g>
		<path d="M345,340c-5.52,0-10,4.48-10,10c0,5.52,4.48,10,10,10c5.52,0,10-4.48,10-10C355,344.48,350.52,340,345,340z" fill="#FFFFFF"/>
	</g>
</g>
<g>
	<g>
		<path d="M235,340c-5.52,0-10,4.48-10,10c0,5.52,4.48,10,10,10s10-4.48,10-10C245,344.48,240.52,340,235,340z" fill="#FFFFFF"/>
	</g>
</g>
<g>
	<g>
		<path d="M400,284c-5.52,0-10,4.48-10,10c0,5.52,4.48,10,10,10c5.52,0,10-4.48,10-10C410,288.48,405.52,284,400,284z" fill="#FFFFFF"/>
	</g>
</g>
<g>
	<g>
		<path d="M345,284c-5.52,0-10,4.48-10,10c0,5.52,4.48,10,10,10c5.52,0,10-4.48,10-10C355,288.48,350.52,284,345,284z" fill="#FFFFFF"/>
	</g>
</g>
<g>
	<g>
		<path d="M70,284c-5.52,0-10,4.48-10,10c0,5.52,4.48,10,10,10s10-4.48,10-10C80,288.48,75.52,284,70,284z" fill="#FFFFFF"/>
	</g>
</g>
<g>
	<g>
		<path d="M180,284c-5.52,0-10,4.48-10,10c0,5.52,4.48,10,10,10s10-4.48,10-10C190,288.48,185.52,284,180,284z" fill="#FFFFFF"/>
	</g>
</g>
<g>
	<g>
		<path d="M125,284c-5.52,0-10,4.48-10,10c0,5.52,4.48,10,10,10s10-4.48,10-10C135,288.48,130.52,284,125,284z" fill="#FFFFFF"/>
	</g>
</g>
<g>
	<g>
		<path d="M235,284c-5.52,0-10,4.48-10,10c0,5.52,4.48,10,10,10s10-4.48,10-10C245,288.48,240.52,284,235,284z" fill="#FFFFFF"/>
	</g>
</g>
<g>
	<g>
		<path d="M290,284c-5.52,0-10,4.48-10,10c0,5.52,4.48,10,10,10c5.52,0,10-4.48,10-10C300,288.48,295.52,284,290,284z" fill="#FFFFFF"/>
	</g>
</g>
<g>
	<g>
		<path d="M290,228c-5.52,0-10,4.48-10,10s4.48,10,10,10c5.52,0,10-4.48,10-10S295.52,228,290,228z" fill="#FFFFFF"/>
	</g>
</g>
<g>
	<g>
		<path d="M180,228c-5.52,0-10,4.48-10,10s4.48,10,10,10s10-4.48,10-10S185.52,228,180,228z" fill="#FFFFFF"/>
	</g>
</g>
<g>
	<g>
		<path d="M70,228c-5.52,0-10,4.48-10,10s4.48,10,10,10s10-4.48,10-10S75.52,228,70,228z" fill="#FFFFFF"/>
	</g>
</g>
<g>
	<g>
		<path d="M345,228c-5.52,0-10,4.48-10,10s4.48,10,10,10c5.52,0,10-4.48,10-10S350.52,228,345,228z" fill="#FFFFFF"/>
	</g>
</g>
<g>
	<g>
		<path d="M235,228c-5.52,0-10,4.48-10,10s4.48,10,10,10s10-4.48,10-10S240.52,228,235,228z" fill="#FFFFFF"/>
	</g>
</g>
<g>
	<g>
		<path d="M125,228c-5.52,0-10,4.48-10,10s4.48,10,10,10s10-4.48,10-10S130.52,228,125,228z" fill="#FFFFFF"/>
	</g>
</g>
<g>
	<g>
		<path d="M400,228c-5.52,0-10,4.48-10,10s4.48,10,10,10c5.52,0,10-4.48,10-10S405.52,228,400,228z" fill="#FFFFFF"/>
	</g>
</g>
<g>
	<g>
		<path d="M401,172c-5.52,0-10,4.48-10,10s4.48,10,10,10c5.52,0,10-4.48,10-10S406.52,172,401,172z" fill="#FFFFFF"/>
	</g>
</g>
<g>
	<g>
		<path d="M346,172c-5.52,0-10,4.48-10,10s4.48,10,10,10c5.52,0,10-4.48,10-10S351.52,172,346,172z" fill="#FFFFFF"/>
	</g>
</g>
<g>
	<g>
		<path d="M291,172c-5.52,0-10,4.48-10,10s4.48,10,10,10c5.52,0,10-4.48,10-10S296.52,172,291,172z" fill="#FFFFFF"/>
	</g>
</g>
<g>
</g>
<g>
</g>
<g>
</g>
<g>
</g>
<g>
</g>
<g>
</g>
<g>
</g>
<g>
</g>
<g>
</g>
<g>
</g>
<g>
</g>
<g>
</g>
<g>
</g>
<g>
</g>
<g>
</g>
</svg>
