<?xml version="1.0"?>
<svg xmlns="http://www.w3.org/2000/svg" height="512px" viewBox="-2 0 453 453.792" width="512px"><path d="m120.394531 317.792969c.03125-1.804688.6875-3.542969 1.847657-4.921875l-.09375-.078125 21.609374-27h-79.363281v128h56zm0 0" fill="#82b14a"/><path d="m216.394531 269.792969v-24h-124.160156l-19.199219 24zm0 0" fill="#82b14a"/><path d="m232.394531 245.792969v24h145.875l-14.402343-24zm0 0" fill="#82b14a"/><path d="m32.394531 181.792969h384v16h-384zm0 0" fill="#82b14a"/><path d="m327.253906 313.671875-.113281.070313c.785156 1.207031 1.21875 2.609374 1.253906 4.050781v96h56v-128h-73.871093zm0 0" fill="#82b14a"/><path d="m291.867188 285.792969h-127.632813l-19.199219 24h161.234375zm0 0" fill="#82b14a"/><path d="m.394531 181.792969h16v272h-16zm0 0" fill="#82b14a"/><path d="m432.394531 181.792969h16v272h-16zm0 0" fill="#82b14a"/><path d="m15.355469 165.792969h418.082031l-209.042969-165.792969zm249.039062-16h-80v-16h80zm0-24h-80v-16h80zm-8-56c0 17.671875-14.324219 32-32 32-17.671875 0-32-14.328125-32-32 0-17.675781 14.328125-32 32-32 17.675781 0 32 14.324219 32 32zm0 0" fill="#82b14a"/><path d="m240.394531 69.792969c0 8.835937-7.160156 16-16 16-8.835937 0-16-7.164063-16-16 0-8.835938 7.164063-16 16-16 8.839844 0 16 7.164062 16 16zm0 0" fill="#82b14a"/><path d="m216.394531 325.792969h16v32h-16zm0 0" fill="#82b14a"/><path d="m248.394531 365.792969c0 4.417969-3.582031 8-8 8h-32c-4.417969 0-8-3.582031-8-8v-40h-64v128h176v-128h-64zm0 0" fill="#82b14a"/></svg>
