<?xml version="1.0"?>
<svg xmlns="http://www.w3.org/2000/svg" height="512px" viewBox="-18 -18 597.33331 597.33331" width="512px"><path d="m280 0c-154.640625 0-280 125.359375-280 280s125.359375 280 280 280 280-125.359375 280-280c-.175781-154.566406-125.433594-279.824219-280-280zm0 520c-22.089844 0-40-17.910156-40-40s17.910156-40 40-40 40 17.910156 40 40-17.910156 40-40 40zm41.640625-139.378906c-1.191406 22.128906-19.476563 39.460937-41.640625 39.460937s-40.449219-17.332031-41.640625-39.460937l-16.480469-296.621094c-.632812-11.441406 3.46875-22.636719 11.34375-30.960938 7.875-8.328124 18.828125-13.039062 30.289063-13.039062h32.996093c11.460938 0 22.414063 4.71875 30.289063 13.042969 7.875 8.320312 11.984375 19.515625 11.351563 30.957031zm0 0" fill="#82b14a"/><path d="m312.261719 66.792969c-4.089844-4.363281-9.800781-6.816407-15.773438-6.792969h-32.996093c-5.96875 0-11.664063 2.453125-15.765626 6.789062-4.097656 4.328126-6.238281 10.15625-5.90625 16.109376l16.480469 296.601562c.640625 11.511719 10.171875 20.515625 21.699219 20.5 11.515625-.003906 21.023438-8.992188 21.671875-20.488281l16.488281-296.613281c.359375-5.953126-1.777344-11.796876-5.898437-16.105469zm0 0" fill="#82b14a"/><path d="m300 480c0 11.046875-8.953125 20-20 20s-20-8.953125-20-20 8.953125-20 20-20 20 8.953125 20 20zm0 0" fill="#82b14a"/></svg>
