<?xml version="1.0" encoding="iso-8859-1"?>
<!-- Generator: Adobe Illustrator 16.0.0, SVG Export Plug-In . SVG Version: 6.00 Build 0)  -->
<!DOCTYPE svg PUBLIC "-//W3C//DTD SVG 1.1//EN" "http://www.w3.org/Graphics/SVG/1.1/DTD/svg11.dtd">
<svg xmlns="http://www.w3.org/2000/svg" xmlns:xlink="http://www.w3.org/1999/xlink" version="1.1" id="Capa_1" x="0px" y="0px" width="512px" height="512px" viewBox="0 0 615.555 615.555" style="enable-background:new 0 0 615.555 615.555;" xml:space="preserve">
<g>
	<g>
		<path d="M263.646,334.543c-43.967-39.858-100.891-61.811-160.289-61.811c-17.707,0-35.44,1.961-52.711,5.83    c-3.229,0.723-5.444,3.698-5.214,6.998l9.103,130.027c0.151,2.164,1.346,4.123,3.203,5.25c1.854,1.131,4.143,1.281,6.134,0.422    c12.473-5.402,25.705-8.139,39.338-8.139c24.467,0,47.929,9.055,66.074,25.5c28.573,25.898,39.398,66.408,27.579,103.203    c-0.663,2.068-0.281,4.328,1.021,6.064c1.265,1.688,3.253,2.674,5.354,2.674c0.064,0,0.124,0,0.188-0.004l130.311-3.641    c3.31-0.09,6.054-2.586,6.455-5.873C349.682,463.785,321.066,386.588,263.646,334.543z M327.528,533.705l-115.445,3.225    c9.089-39.271-3.668-80.902-33.813-108.227c-20.611-18.68-47.27-28.967-75.062-28.967c-12.342,0-24.396,1.979-35.956,5.891    L59.19,290.442c14.527-2.868,29.355-4.324,44.164-4.324c56.068,0,109.8,20.718,151.297,58.343    C307.442,392.303,334.435,462.682,327.528,533.705z" fill="#154360"/>
		<path d="M445.949,132.482C351.727,47.052,229.836,0,102.722,0C78.058,0,53.176,1.8,28.773,5.344    c-3.471,0.505-5.96,3.594-5.716,7.091l10.628,152.003c0.134,1.894,1.064,3.644,2.563,4.812c1.499,1.168,3.414,1.644,5.291,1.312    c20.29-3.621,41.018-5.455,61.616-5.455c86.086,0,168.544,31.772,232.182,89.459c80.458,72.968,121.315,177.289,112.1,286.212    c-0.161,1.896,0.495,3.775,1.804,5.16c1.265,1.338,3.025,2.096,4.865,2.096c0.063,0,0.124,0,0.188-0.004l152.32-4.25    c3.491-0.098,6.322-2.861,6.499-6.352C620.909,383.473,559.978,235.874,445.949,132.482z M600.016,530.576l-138.684,3.867    c7.125-110.404-35.266-215.666-117.002-289.795c-66.107-59.926-151.761-92.93-241.174-92.93c-18.905,0-37.919,1.489-56.63,4.431    L36.849,17.736c21.789-2.888,43.92-4.35,65.873-4.35c123.781,0,242.483,45.817,334.235,129.012    C546.478,241.7,605.699,382.877,600.016,530.576z" fill="#154360"/>
		<path d="M78.389,462.26c-21.599,0-42.3,9.166-56.797,25.156c-28.375,31.316-25.993,79.885,5.314,108.256    c14.129,12.82,32.405,19.883,51.466,19.883c21.595,0,42.3-9.174,56.804-25.166c28.362-31.307,25.982-79.865-5.304-108.24    C115.743,469.324,97.461,462.26,78.389,462.26z M125.26,581.396c-11.97,13.201-29.061,20.771-46.885,20.771    c-15.729,0-30.812-5.826-42.474-16.412c-25.842-23.422-27.81-63.506-4.391-89.352c11.964-13.191,29.051-20.76,46.878-20.76    c15.738,0,30.825,5.83,42.487,16.416C146.705,515.482,148.669,555.561,125.26,581.396z" fill="#154360"/>
		<path d="M190.742,133.727c-48.719-20.879-99.436-15.508-118.451-12.365l-5.84-93.402c-0.23-3.688-3.383-6.449-7.098-6.261    c-3.688,0.231-6.492,3.41-6.261,7.098l6.312,100.981c0.124,1.961,1.107,3.771,2.684,4.95c1.576,1.178,3.594,1.596,5.512,1.154    c0.613-0.144,61.774-13.888,117.868,10.153c0.86,0.368,1.754,0.542,2.634,0.542c2.597,0,5.067-1.519,6.154-4.059    C195.711,139.119,194.139,135.183,190.742,133.727z" fill="#154360"/>
		<path d="M93.117,374.811l-5.636-71.361c-0.288-3.685-3.537-6.432-7.198-6.144c-3.688,0.291-6.436,3.514-6.145,7.198l6.312,79.945    c0.171,2.178,1.396,4.137,3.28,5.244c1.888,1.107,4.19,1.225,6.181,0.314c0.465-0.215,47.009-20.768,95.764,24.088    c1.285,1.186,2.912,1.768,4.531,1.768c1.807,0,3.607-0.727,4.926-2.162c2.503-2.717,2.326-6.953-0.395-9.457    C152.036,364.953,110.703,370.021,93.117,374.811z" fill="#154360"/>
		<path d="M63.574,490.846c-14.316,0.863-30.132,15.133-36.005,32.488c-3.942,11.648-6.663,34.557,19.407,57.098    c1.265,1.096,2.824,1.631,4.374,1.631c1.877,0,3.741-0.783,5.066-2.316c2.419-2.795,2.112-7.023-0.686-9.441    c-19.135-16.545-18.981-32.344-15.481-42.682c4.883-14.434,17.369-23.006,24.132-23.414c3.691-0.225,6.499-3.398,6.278-7.086    C70.438,493.436,67.278,490.645,63.574,490.846z" fill="#154360"/>
	</g>
</g>
<g>
</g>
<g>
</g>
<g>
</g>
<g>
</g>
<g>
</g>
<g>
</g>
<g>
</g>
<g>
</g>
<g>
</g>
<g>
</g>
<g>
</g>
<g>
</g>
<g>
</g>
<g>
</g>
<g>
</g>
</svg>
